<mxfile host="app.diagrams.net" modified="2023-06-21T14:38:46.497Z" agent="Mozilla/5.0 (Macintosh; Intel Mac OS X 10_15_7) AppleWebKit/537.36 (KHTML, like Gecko) Chrome/113.0.0.0 Safari/537.36" etag="15TujtW-yFii0vxdG3kt" version="21.5.0" type="github">
  <diagram name="페이지-1" id="YQNp7axcdjfaRE0lYz0s">
    <mxGraphModel dx="788" dy="828" grid="1" gridSize="10" guides="1" tooltips="1" connect="1" arrows="1" fold="1" page="1" pageScale="1" pageWidth="827" pageHeight="1169" math="0" shadow="0">
      <root>
        <mxCell id="0" />
        <mxCell id="1" parent="0" />
        <mxCell id="4epYd7qigYj_4DgoUIWm-1" value="이용자&lt;br&gt;" style="shape=umlActor;verticalLabelPosition=bottom;verticalAlign=top;html=1;outlineConnect=0;" vertex="1" parent="1">
          <mxGeometry x="30" y="190" width="40" height="70" as="geometry" />
        </mxCell>
        <mxCell id="4epYd7qigYj_4DgoUIWm-3" value="게시판 서비스" style="shape=umlFrame;whiteSpace=wrap;html=1;pointerEvents=0;width=130;height=30;" vertex="1" parent="1">
          <mxGeometry x="110" y="20" width="530" height="680" as="geometry" />
        </mxCell>
        <mxCell id="4epYd7qigYj_4DgoUIWm-4" value="게시판 보기" style="rounded=1;whiteSpace=wrap;html=1;arcSize=40;fontColor=#000000;fillColor=#ffffc0;strokeColor=#ff0000;" vertex="1" parent="1">
          <mxGeometry x="140" y="280" width="120" height="40" as="geometry" />
        </mxCell>
        <mxCell id="4epYd7qigYj_4DgoUIWm-18" style="rounded=0;orthogonalLoop=1;jettySize=auto;html=1;entryX=1;entryY=0.3333333333333333;entryDx=0;entryDy=0;entryPerimeter=0;startArrow=none;startFill=0;endArrow=none;endFill=0;" edge="1" parent="1" source="4epYd7qigYj_4DgoUIWm-6" target="4epYd7qigYj_4DgoUIWm-1">
          <mxGeometry relative="1" as="geometry" />
        </mxCell>
        <mxCell id="4epYd7qigYj_4DgoUIWm-6" value="회원 가입" style="rounded=1;whiteSpace=wrap;html=1;arcSize=40;fontColor=#000000;fillColor=#ffffc0;strokeColor=#ff0000;" vertex="1" parent="1">
          <mxGeometry x="140" y="190" width="120" height="40" as="geometry" />
        </mxCell>
        <mxCell id="4epYd7qigYj_4DgoUIWm-41" style="rounded=0;orthogonalLoop=1;jettySize=auto;html=1;exitX=1;exitY=0.5;exitDx=0;exitDy=0;entryX=0;entryY=0.5;entryDx=0;entryDy=0;endArrow=none;endFill=0;" edge="1" parent="1" source="4epYd7qigYj_4DgoUIWm-8" target="4epYd7qigYj_4DgoUIWm-35">
          <mxGeometry relative="1" as="geometry" />
        </mxCell>
        <mxCell id="4epYd7qigYj_4DgoUIWm-8" value="게시판 보기" style="rounded=1;whiteSpace=wrap;html=1;arcSize=40;fontColor=#000000;fillColor=#ffffc0;strokeColor=#ff0000;" vertex="1" parent="1">
          <mxGeometry x="150" y="470" width="120" height="40" as="geometry" />
        </mxCell>
        <mxCell id="4epYd7qigYj_4DgoUIWm-9" value="회원 로그인" style="rounded=1;whiteSpace=wrap;html=1;arcSize=40;fontColor=#000000;fillColor=#ffffc0;strokeColor=#ff0000;" vertex="1" parent="1">
          <mxGeometry x="280" y="85" width="120" height="40" as="geometry" />
        </mxCell>
        <mxCell id="4epYd7qigYj_4DgoUIWm-22" value="&amp;lt;&amp;lt;include&amp;gt;&amp;gt;" style="edgeStyle=orthogonalEdgeStyle;rounded=0;orthogonalLoop=1;jettySize=auto;html=1;exitX=0;exitY=0.5;exitDx=0;exitDy=0;entryX=1;entryY=0.5;entryDx=0;entryDy=0;endArrow=none;endFill=0;dashed=1;startArrow=classicThin;startFill=1;" edge="1" parent="1" source="4epYd7qigYj_4DgoUIWm-10" target="4epYd7qigYj_4DgoUIWm-9">
          <mxGeometry relative="1" as="geometry" />
        </mxCell>
        <mxCell id="4epYd7qigYj_4DgoUIWm-10" value="인증" style="rounded=1;whiteSpace=wrap;html=1;arcSize=40;fontColor=#000000;fillColor=#ffffc0;strokeColor=#ff0000;" vertex="1" parent="1">
          <mxGeometry x="500" y="85" width="120" height="40" as="geometry" />
        </mxCell>
        <mxCell id="4epYd7qigYj_4DgoUIWm-11" value="로그인 실패" style="rounded=1;whiteSpace=wrap;html=1;arcSize=40;fontColor=#000000;fillColor=#ffffc0;strokeColor=#ff0000;" vertex="1" parent="1">
          <mxGeometry x="500" y="170" width="120" height="40" as="geometry" />
        </mxCell>
        <mxCell id="4epYd7qigYj_4DgoUIWm-12" value="게시판 정렬" style="rounded=1;whiteSpace=wrap;html=1;arcSize=40;fontColor=#000000;fillColor=#ffffc0;strokeColor=#ff0000;" vertex="1" parent="1">
          <mxGeometry x="450" y="230" width="120" height="40" as="geometry" />
        </mxCell>
        <mxCell id="4epYd7qigYj_4DgoUIWm-13" value="게시판 검색" style="rounded=1;whiteSpace=wrap;html=1;arcSize=40;fontColor=#000000;fillColor=#ffffc0;strokeColor=#ff0000;" vertex="1" parent="1">
          <mxGeometry x="450" y="350" width="120" height="40" as="geometry" />
        </mxCell>
        <mxCell id="4epYd7qigYj_4DgoUIWm-14" value="게시글 쓰기, 수정, 삭제" style="rounded=1;whiteSpace=wrap;html=1;arcSize=40;fontColor=#000000;fillColor=#ffffc0;strokeColor=#ff0000;" vertex="1" parent="1">
          <mxGeometry x="450" y="480" width="120" height="40" as="geometry" />
        </mxCell>
        <mxCell id="4epYd7qigYj_4DgoUIWm-15" value="댓글 보기, 쓰기,&lt;br&gt;수정, 삭제" style="rounded=1;whiteSpace=wrap;html=1;arcSize=40;fontColor=#000000;fillColor=#ffffc0;strokeColor=#ff0000;" vertex="1" parent="1">
          <mxGeometry x="450" y="590" width="120" height="40" as="geometry" />
        </mxCell>
        <mxCell id="4epYd7qigYj_4DgoUIWm-19" style="rounded=0;orthogonalLoop=1;jettySize=auto;html=1;entryX=1;entryY=0.3333333333333333;entryDx=0;entryDy=0;entryPerimeter=0;startArrow=none;startFill=0;endArrow=none;endFill=0;exitX=0;exitY=0.5;exitDx=0;exitDy=0;" edge="1" parent="1" source="4epYd7qigYj_4DgoUIWm-9" target="4epYd7qigYj_4DgoUIWm-1">
          <mxGeometry relative="1" as="geometry">
            <mxPoint x="161" y="190" as="sourcePoint" />
            <mxPoint x="80" y="223" as="targetPoint" />
          </mxGeometry>
        </mxCell>
        <mxCell id="4epYd7qigYj_4DgoUIWm-20" style="rounded=0;orthogonalLoop=1;jettySize=auto;html=1;entryX=1;entryY=0.3333333333333333;entryDx=0;entryDy=0;entryPerimeter=0;startArrow=none;startFill=0;endArrow=none;endFill=0;exitX=0;exitY=0.5;exitDx=0;exitDy=0;" edge="1" parent="1" source="4epYd7qigYj_4DgoUIWm-4" target="4epYd7qigYj_4DgoUIWm-1">
          <mxGeometry relative="1" as="geometry">
            <mxPoint x="290" y="115" as="sourcePoint" />
            <mxPoint x="80" y="223" as="targetPoint" />
          </mxGeometry>
        </mxCell>
        <mxCell id="4epYd7qigYj_4DgoUIWm-21" style="rounded=0;orthogonalLoop=1;jettySize=auto;html=1;entryX=1;entryY=0.3333333333333333;entryDx=0;entryDy=0;entryPerimeter=0;startArrow=none;startFill=0;endArrow=none;endFill=0;exitX=0;exitY=0.5;exitDx=0;exitDy=0;" edge="1" parent="1" source="4epYd7qigYj_4DgoUIWm-8" target="4epYd7qigYj_4DgoUIWm-1">
          <mxGeometry relative="1" as="geometry">
            <mxPoint x="150" y="310" as="sourcePoint" />
            <mxPoint x="80" y="223" as="targetPoint" />
          </mxGeometry>
        </mxCell>
        <mxCell id="4epYd7qigYj_4DgoUIWm-23" style="rounded=0;orthogonalLoop=1;jettySize=auto;html=1;exitX=0;exitY=0.5;exitDx=0;exitDy=0;entryX=1;entryY=0.5;entryDx=0;entryDy=0;endArrow=classic;endFill=1;dashed=1;startArrow=none;startFill=0;" edge="1" parent="1" source="4epYd7qigYj_4DgoUIWm-11" target="4epYd7qigYj_4DgoUIWm-9">
          <mxGeometry relative="1" as="geometry">
            <mxPoint x="460" y="115" as="sourcePoint" />
            <mxPoint x="410" y="115" as="targetPoint" />
          </mxGeometry>
        </mxCell>
        <mxCell id="4epYd7qigYj_4DgoUIWm-24" value="&amp;lt;&amp;lt;extend&amp;gt;&amp;gt;" style="edgeLabel;html=1;align=center;verticalAlign=middle;resizable=0;points=[];" vertex="1" connectable="0" parent="4epYd7qigYj_4DgoUIWm-23">
          <mxGeometry x="0.0891" y="-2" relative="1" as="geometry">
            <mxPoint as="offset" />
          </mxGeometry>
        </mxCell>
        <mxCell id="4epYd7qigYj_4DgoUIWm-25" value="&amp;lt;&amp;lt;include&amp;gt;&amp;gt;" style="rounded=0;orthogonalLoop=1;jettySize=auto;html=1;exitX=0.5;exitY=1;exitDx=0;exitDy=0;entryX=1;entryY=0.25;entryDx=0;entryDy=0;endArrow=none;endFill=0;dashed=1;startArrow=classicThin;startFill=1;" edge="1" parent="1" source="4epYd7qigYj_4DgoUIWm-9" target="4epYd7qigYj_4DgoUIWm-4">
          <mxGeometry relative="1" as="geometry">
            <mxPoint x="510" y="115" as="sourcePoint" />
            <mxPoint x="410" y="115" as="targetPoint" />
          </mxGeometry>
        </mxCell>
        <mxCell id="4epYd7qigYj_4DgoUIWm-26" value="&amp;lt;&amp;lt;include&amp;gt;&amp;gt;" style="rounded=0;orthogonalLoop=1;jettySize=auto;html=1;exitX=0.5;exitY=1;exitDx=0;exitDy=0;entryX=1;entryY=0.5;entryDx=0;entryDy=0;endArrow=none;endFill=0;dashed=1;startArrow=classicThin;startFill=1;" edge="1" parent="1" source="4epYd7qigYj_4DgoUIWm-9" target="4epYd7qigYj_4DgoUIWm-8">
          <mxGeometry relative="1" as="geometry">
            <mxPoint x="350" y="135" as="sourcePoint" />
            <mxPoint x="270" y="300" as="targetPoint" />
          </mxGeometry>
        </mxCell>
        <mxCell id="4epYd7qigYj_4DgoUIWm-27" style="rounded=0;orthogonalLoop=1;jettySize=auto;html=1;exitX=0;exitY=0.5;exitDx=0;exitDy=0;entryX=1;entryY=0.5;entryDx=0;entryDy=0;endArrow=classic;endFill=1;dashed=1;startArrow=none;startFill=0;" edge="1" parent="1" source="4epYd7qigYj_4DgoUIWm-12" target="4epYd7qigYj_4DgoUIWm-4">
          <mxGeometry relative="1" as="geometry">
            <mxPoint x="510" y="200" as="sourcePoint" />
            <mxPoint x="410" y="115" as="targetPoint" />
          </mxGeometry>
        </mxCell>
        <mxCell id="4epYd7qigYj_4DgoUIWm-28" value="&amp;lt;&amp;lt;extend&amp;gt;&amp;gt;" style="edgeLabel;html=1;align=center;verticalAlign=middle;resizable=0;points=[];" vertex="1" connectable="0" parent="4epYd7qigYj_4DgoUIWm-27">
          <mxGeometry x="0.0891" y="-2" relative="1" as="geometry">
            <mxPoint as="offset" />
          </mxGeometry>
        </mxCell>
        <mxCell id="4epYd7qigYj_4DgoUIWm-29" style="rounded=0;orthogonalLoop=1;jettySize=auto;html=1;exitX=0;exitY=0.5;exitDx=0;exitDy=0;entryX=1;entryY=0.5;entryDx=0;entryDy=0;endArrow=classic;endFill=1;dashed=1;startArrow=none;startFill=0;" edge="1" parent="1" source="4epYd7qigYj_4DgoUIWm-13" target="4epYd7qigYj_4DgoUIWm-4">
          <mxGeometry relative="1" as="geometry">
            <mxPoint x="520" y="210" as="sourcePoint" />
            <mxPoint x="420" y="125" as="targetPoint" />
          </mxGeometry>
        </mxCell>
        <mxCell id="4epYd7qigYj_4DgoUIWm-30" value="&amp;lt;&amp;lt;extend&amp;gt;&amp;gt;" style="edgeLabel;html=1;align=center;verticalAlign=middle;resizable=0;points=[];" vertex="1" connectable="0" parent="4epYd7qigYj_4DgoUIWm-29">
          <mxGeometry x="0.0891" y="-2" relative="1" as="geometry">
            <mxPoint as="offset" />
          </mxGeometry>
        </mxCell>
        <mxCell id="4epYd7qigYj_4DgoUIWm-31" style="rounded=0;orthogonalLoop=1;jettySize=auto;html=1;exitX=0;exitY=0.5;exitDx=0;exitDy=0;entryX=1;entryY=0.5;entryDx=0;entryDy=0;endArrow=classic;endFill=1;dashed=1;startArrow=none;startFill=0;" edge="1" parent="1" source="4epYd7qigYj_4DgoUIWm-14" target="4epYd7qigYj_4DgoUIWm-8">
          <mxGeometry relative="1" as="geometry">
            <mxPoint x="530" y="220" as="sourcePoint" />
            <mxPoint x="430" y="135" as="targetPoint" />
          </mxGeometry>
        </mxCell>
        <mxCell id="4epYd7qigYj_4DgoUIWm-32" value="&amp;lt;&amp;lt;extend&amp;gt;&amp;gt;" style="edgeLabel;html=1;align=center;verticalAlign=middle;resizable=0;points=[];" vertex="1" connectable="0" parent="4epYd7qigYj_4DgoUIWm-31">
          <mxGeometry x="0.0891" y="-2" relative="1" as="geometry">
            <mxPoint as="offset" />
          </mxGeometry>
        </mxCell>
        <mxCell id="4epYd7qigYj_4DgoUIWm-33" style="rounded=0;orthogonalLoop=1;jettySize=auto;html=1;exitX=0;exitY=0.5;exitDx=0;exitDy=0;entryX=1;entryY=0.5;entryDx=0;entryDy=0;endArrow=classic;endFill=1;dashed=1;startArrow=none;startFill=0;" edge="1" parent="1" source="4epYd7qigYj_4DgoUIWm-15" target="4epYd7qigYj_4DgoUIWm-8">
          <mxGeometry relative="1" as="geometry">
            <mxPoint x="540" y="230" as="sourcePoint" />
            <mxPoint x="440" y="145" as="targetPoint" />
          </mxGeometry>
        </mxCell>
        <mxCell id="4epYd7qigYj_4DgoUIWm-34" value="&amp;lt;&amp;lt;extend&amp;gt;&amp;gt;" style="edgeLabel;html=1;align=center;verticalAlign=middle;resizable=0;points=[];" vertex="1" connectable="0" parent="4epYd7qigYj_4DgoUIWm-33">
          <mxGeometry x="0.0891" y="-2" relative="1" as="geometry">
            <mxPoint as="offset" />
          </mxGeometry>
        </mxCell>
        <mxCell id="4epYd7qigYj_4DgoUIWm-35" value="DB" style="html=1;dropTarget=0;whiteSpace=wrap;" vertex="1" parent="1">
          <mxGeometry x="730" y="255" width="80" height="90" as="geometry" />
        </mxCell>
        <mxCell id="4epYd7qigYj_4DgoUIWm-38" style="rounded=0;orthogonalLoop=1;jettySize=auto;html=1;entryX=0;entryY=0.5;entryDx=0;entryDy=0;startArrow=none;startFill=0;endArrow=none;endFill=0;exitX=1;exitY=0.5;exitDx=0;exitDy=0;" edge="1" parent="1" source="4epYd7qigYj_4DgoUIWm-10" target="4epYd7qigYj_4DgoUIWm-35">
          <mxGeometry relative="1" as="geometry">
            <mxPoint x="290" y="115" as="sourcePoint" />
            <mxPoint x="80" y="223" as="targetPoint" />
          </mxGeometry>
        </mxCell>
        <mxCell id="4epYd7qigYj_4DgoUIWm-39" style="rounded=0;orthogonalLoop=1;jettySize=auto;html=1;entryX=0;entryY=0.5;entryDx=0;entryDy=0;startArrow=none;startFill=0;endArrow=none;endFill=0;exitX=1;exitY=0.5;exitDx=0;exitDy=0;" edge="1" parent="1" source="4epYd7qigYj_4DgoUIWm-4" target="4epYd7qigYj_4DgoUIWm-35">
          <mxGeometry relative="1" as="geometry">
            <mxPoint x="630" y="115" as="sourcePoint" />
            <mxPoint x="736" y="248" as="targetPoint" />
          </mxGeometry>
        </mxCell>
        <mxCell id="4epYd7qigYj_4DgoUIWm-42" style="rounded=0;orthogonalLoop=1;jettySize=auto;html=1;exitX=1;exitY=0.5;exitDx=0;exitDy=0;entryX=0;entryY=0.5;entryDx=0;entryDy=0;endArrow=none;endFill=0;" edge="1" parent="1" source="4epYd7qigYj_4DgoUIWm-14" target="4epYd7qigYj_4DgoUIWm-35">
          <mxGeometry relative="1" as="geometry">
            <mxPoint x="280" y="500" as="sourcePoint" />
            <mxPoint x="740" y="275" as="targetPoint" />
          </mxGeometry>
        </mxCell>
        <mxCell id="4epYd7qigYj_4DgoUIWm-43" style="rounded=0;orthogonalLoop=1;jettySize=auto;html=1;exitX=1;exitY=0.5;exitDx=0;exitDy=0;entryX=0;entryY=0.5;entryDx=0;entryDy=0;endArrow=none;endFill=0;" edge="1" parent="1" source="4epYd7qigYj_4DgoUIWm-15" target="4epYd7qigYj_4DgoUIWm-35">
          <mxGeometry relative="1" as="geometry">
            <mxPoint x="580" y="500" as="sourcePoint" />
            <mxPoint x="740" y="275" as="targetPoint" />
          </mxGeometry>
        </mxCell>
      </root>
    </mxGraphModel>
  </diagram>
</mxfile>
